# xmcd CD database file
#
# Track frame offsets:
#	150
#	15990
#	36090
#	51690
#	66630
#	82380
#	103530
#	122070
#	141870
#	154920
#	173440
#	198565
#
# Disc length: 2877 seconds
#
# Revision: 0
# Processed by: cddbd v1.4PL0 Copyright (c) Steve Scherf et al.
# Submitted via: CDex 1.40Release
#
DISCID=ad0b3b0c
DTITLE=John Rodine - self-titled
DYEAR=2003
DGENRE=Country
TTITLE0=New Morning
TTITLE1=Don't leave Me here
TTITLE2=So Glad For Your Sake
TTITLE3=There You Go
TTITLE4=Time To Kill
TTITLE5=Mother's Last Words To Her Daughter
TTITLE6=Can't Help Myself
TTITLE7=Last Night I heard you Crying In Your Sleep
TTITLE8=Drop Drop
TTITLE9=Jealous Kind
TTITLE10=Old Ruben
TTITLE11=Mortal Man
EXTD=YEAR: 2003 ID3G: 2
EXTT0=
EXTT1=
EXTT2=
EXTT3=
EXTT4=
EXTT5=
EXTT6=
EXTT7=
EXTT8=
EXTT9=
EXTT10=
EXTT11=
PLAYORDER=
